<?xml version="1.0" encoding="utf-8"?>
<!-- Generator: Adobe Illustrator 17.1.0, SVG Export Plug-In . SVG Version: 6.00 Build 0)  -->
<!DOCTYPE svg PUBLIC "-//W3C//DTD SVG 1.1//EN" "http://www.w3.org/Graphics/SVG/1.1/DTD/svg11.dtd">
<svg version="1.1" id="Layer_1" xmlns="http://www.w3.org/2000/svg" xmlns:xlink="http://www.w3.org/1999/xlink" x="0px" y="0px"
	 viewBox="0 0 792 612" enable-background="new 0 0 792 612" xml:space="preserve">
<line fill="none" stroke="#39B54A" stroke-width="3" stroke-miterlimit="10" x1="62.1" y1="18" x2="90" y2="45.9"/>
<path fill="none" stroke="#39B54A" stroke-width="3" stroke-miterlimit="10" d="M107,44.8c6,0,22.5,0.2,28-26.8"/>
<path fill="none" stroke="#39B54A" stroke-width="3" stroke-miterlimit="10" d="M152.5,18.2c0,0,6,31.8,27.5,26.1"/>
<path fill="none" stroke="#39B54A" stroke-width="3" stroke-miterlimit="10" d="M226.5,18c-5.2,0.5-18.2-3.5-28.5,25.8"/>
<path fill="none" stroke="#39B54A" stroke-width="3" stroke-miterlimit="10" d="M287,45.5c5.2-1.8,8.5-6.5,11.8-10.2
	s4.8-11.5,12.2-15.8c1.6-0.9,4-1.5,4-1.5"/>
<line fill="none" stroke="#39B54A" stroke-width="3" stroke-miterlimit="10" x1="376.5" y1="18" x2="405" y2="18"/>
<polyline fill="none" stroke="#39B54A" stroke-width="3" stroke-miterlimit="10" points="423,19 435.5,19 438,45 451.8,45 "/>
<polyline fill="none" stroke="#39B54A" stroke-width="3" stroke-miterlimit="10" points="468,44 481,18 495,44 "/>
<path fill="none" stroke="#39B54A" stroke-width="3" stroke-miterlimit="10" d="M513,45.5c2.5-3.2,4.7-6.6,6.2-10.4
	c1.8-4.3,2.9-8.9,4.4-13.3c0.5-1.5,1.9-2.6,2.9-3.6c0.7-0.7,2.6,0.7,3.1,1.2c1.4,1.2,2,3.1,2.5,4.7c0.7,2.1,1.4,4.2,2,6.4
	c0.7,2.4,1.5,4.9,2.5,7.2c1.1,2.7,2.5,5.2,3.8,7.8"/>
<path fill="none" stroke="#39B54A" stroke-width="3" stroke-miterlimit="10" d="M558,18.5c2,6,15.2,27,28.5,26.5"/>
<path fill="none" stroke="#39B54A" stroke-width="3" stroke-miterlimit="10" d="M603,18c1.5,3.5,6.7,25,12.8,25c1.2,0,1.2,0,1.2,0
	l0.4-18.3c0,0,8.1,16.5,12.6,18.3"/>
<path fill="none" stroke="#39B54A" stroke-width="3" stroke-miterlimit="10" d="M647,18c0.5,2.8,4.5,21,6.2,22.2s1.8,1.2,1.8,1.2
	l2-19c0,0,4.2,16,6.8,17.8s1.5-1.5,1.5-1.5l1.8-17.2c0,0,4.2,19.2,7,20"/>
<path fill="none" stroke="#39B54A" stroke-width="3" stroke-miterlimit="10" d="M693,18c0.2,4,3.5,20.5,4.2,21.8s2,1.8,2,1.8
	l1.5-17.5c0,0,4.2,15.8,6,17.5l2.4-17c0,0,2.4,15.3,4.1,17s1.8,0,1.8,0V21.2c0,0,2.2,14.8,5.5,21.6"/>
<path fill="none" stroke="#39B54A" stroke-width="3" stroke-miterlimit="10" d="M361,45.5c-5.2-1.8-8.5-6.5-11.8-10.2
	s-4.8-11.5-12.2-15.8c-1.6-0.9-4-1.5-4-1.5"/>
<path fill="none" stroke="#39B54A" stroke-width="3" stroke-miterlimit="10" d="M243,19.2c5.2,0.5,18.2-3.5,28.5,25.8"/>
<line fill="none" stroke="#39B54A" stroke-width="3" stroke-miterlimit="10" x1="16.5" y1="46.5" x2="45" y2="18"/>
</svg>
